<?xml version="1.0" encoding="UTF-8" standalone="no"?>
<!-- Created with Inkscape (http://www.inkscape.org/) -->

<svg
   xmlns:osb="http://www.openswatchbook.org/uri/2009/osb"
   xmlns:dc="http://purl.org/dc/elements/1.1/"
   xmlns:cc="http://creativecommons.org/ns#"
   xmlns:rdf="http://www.w3.org/1999/02/22-rdf-syntax-ns#"
   xmlns:svg="http://www.w3.org/2000/svg"
   xmlns="http://www.w3.org/2000/svg"
   xmlns:sodipodi="http://sodipodi.sourceforge.net/DTD/sodipodi-0.dtd"
   xmlns:inkscape="http://www.inkscape.org/namespaces/inkscape"
   width="210mm"
   height="297mm"
   id="svg2"
   version="1.1"
   inkscape:version="0.48.3.1 r9886"
   inkscape:export-filename="/home/javi/non-work/starttroopers/assets/perks/selfTaught_design.png"
   inkscape:export-xdpi="11.85"
   inkscape:export-ydpi="11.85"
   sodipodi:docname="eng-template.svg">
  <defs
     id="defs4">
    <linearGradient
       inkscape:collect="always"
       id="linearGradient3877"
       osb:paint="gradient">
      <stop
         style="stop-color:#3c65cb;stop-opacity:1;"
         offset="0"
         id="stop3879" />
      <stop
         style="stop-color:#3c65cb;stop-opacity:0;"
         offset="1"
         id="stop3881" />
    </linearGradient>
  </defs>
  <sodipodi:namedview
     id="base"
     pagecolor="#ffffff"
     bordercolor="#666666"
     borderopacity="1.0"
     inkscape:pageopacity="0.0"
     inkscape:pageshadow="2"
     inkscape:zoom="0.7"
     inkscape:cx="251.24106"
     inkscape:cy="622.67445"
     inkscape:document-units="px"
     inkscape:current-layer="layer1"
     showgrid="false"
     showguides="true"
     inkscape:guide-bbox="true"
     inkscape:window-width="1861"
     inkscape:window-height="1056"
     inkscape:window-x="59"
     inkscape:window-y="24"
     inkscape:window-maximized="1">
    <sodipodi:guide
       orientation="0,1"
       position="462.85714,560"
       id="guide3847" />
  </sodipodi:namedview>
  <metadata
     id="metadata7">
    <rdf:RDF>
      <cc:Work
         rdf:about="">
        <dc:format>image/svg+xml</dc:format>
        <dc:type
           rdf:resource="http://purl.org/dc/dcmitype/StillImage" />
        <dc:title></dc:title>
      </cc:Work>
    </rdf:RDF>
  </metadata>
  <g
     inkscape:label="Capa 1"
     inkscape:groupmode="layer"
     id="layer1">
    <path
       transform="translate(5.7475812,8.0299478)"
       sodipodi:type="arc"
       style="opacity:0.84877864;fill:#86878d;fill-opacity:0.56302526;stroke-width:1;stroke-miterlimit:4;stroke-dasharray:12, 12;stroke-dashoffset:0"
       id="path2991-1"
       sodipodi:cx="252.53813"
       sodipodi:cy="239.18938"
       sodipodi:rx="189.90868"
       sodipodi:ry="189.90868"
       d="m 442.44681,239.18938 a 189.90868,189.90868 0 1 1 -379.817354,0 189.90868,189.90868 0 1 1 379.817354,0 z" />
    <path
       sodipodi:type="arc"
       style="fill:#fda667;fill-opacity:1;stroke-width:1;stroke-miterlimit:4;stroke-dasharray:12, 12;stroke-dashoffset:0"
       id="path2991"
       sodipodi:cx="252.53813"
       sodipodi:cy="239.18938"
       sodipodi:rx="189.90868"
       sodipodi:ry="189.90868"
       d="m 442.44681,239.18938 a 189.90868,189.90868 0 1 1 -379.817354,0 189.90868,189.90868 0 1 1 379.817354,0 z"
       transform="translate(2.2857185,0.5714289)" />
    <flowRoot
       xml:space="preserve"
       id="flowRoot4364"
       style="fill:black;stroke:none;stroke-opacity:1;stroke-width:1px;stroke-linejoin:miter;stroke-linecap:butt;fill-opacity:1;font-family:Sans;font-style:normal;font-weight:normal;font-size:40px;line-height:125%;letter-spacing:0px;word-spacing:0px"><flowRegion
         id="flowRegion4366"><rect
           id="rect4368"
           width="298.57144"
           height="201.42857"
           x="117.14286"
           y="140.93361" /></flowRegion><flowPara
         id="flowPara4370" /></flowRoot>    <path
       style="fill:#c1c1c1;fill-opacity:1;stroke:none"
       d="m 125.60554,207.15166 c 32.9402,-13.18655 46.73503,-27.80121 101.01526,-39.39595 12.02574,-0.48126 20.62645,5.88754 27.27411,16.16244 8.41794,-21.11331 16.83588,-11.76425 25.25382,-16.16244 108.82566,32.34197 72.1147,26.95222 108.08632,40.4061 l 0,139.40105 -95.597,-25.61514 c -22.36152,-2.50859 -18.58252,10.72862 -34.93915,20.17213 -7.71273,-7.87147 -10.51055,-23.11531 -28.07504,-16.20914 -43.52507,2.8777 -64.77301,20.91101 -94.8281,32.95262 z"
       id="path3060"
       inkscape:connector-curvature="0"
       sodipodi:nodetypes="ccccccccccc" />
    <path
       style="fill:#cecece;fill-opacity:1;stroke:none"
       d="m 126.32811,197.35992 c 32.9402,-13.18655 46.73503,-27.80121 101.01526,-39.39595 12.02574,-0.48126 20.62645,5.88754 27.27411,16.16244 8.41794,-21.11331 16.83588,-11.76425 25.25382,-16.16244 108.82566,32.34197 72.1147,26.95222 108.08632,40.4061 l 0,139.40105 -95.597,-25.61514 c -22.36152,-2.50859 -18.58252,10.72862 -34.93915,20.17213 -7.71273,-7.87147 -10.51055,-23.11531 -28.07504,-16.20914 -43.52507,2.8777 -64.77301,20.91101 -94.8281,32.95262 z"
       id="path3060-0"
       inkscape:connector-curvature="0"
       sodipodi:nodetypes="ccccccccccc" />
    <path
       style="fill:#dedede;fill-opacity:1;stroke:none"
       d="m 127.75668,185.93135 c 32.9402,-13.18655 46.73503,-27.80121 101.01526,-39.39595 12.02574,-0.48126 20.62645,5.88754 27.27411,16.16244 8.41794,-21.11331 16.83588,-11.76425 25.25382,-16.16244 108.82566,32.34197 72.1147,26.95222 108.08632,40.4061 l 0,139.40105 -95.597,-25.61514 c -22.36152,-2.50859 -18.58252,10.72862 -34.93915,20.17213 -7.71273,-7.87147 -10.51055,-23.11531 -28.07504,-16.20914 -43.52507,2.8777 -64.77301,20.91101 -94.8281,32.95262 z"
       id="path3060-0-6"
       inkscape:connector-curvature="0"
       sodipodi:nodetypes="ccccccccccc" />
    <path
       style="fill:#ffffff;fill-opacity:1;stroke:none"
       d="m 129.47096,178.21706 c 32.9402,-13.18655 46.73503,-27.80121 101.01526,-39.39595 12.02574,-0.48126 20.62645,5.88754 27.27411,16.16244 8.41794,-21.11331 16.83588,-11.76425 25.25382,-16.16244 108.82566,32.34197 72.1147,26.95222 108.08632,40.4061 l 0,139.40105 -95.597,-25.61514 c -22.36152,-2.50859 -18.58252,10.72862 -34.93915,20.17213 -7.71273,-7.87147 -10.51055,-23.11531 -28.07504,-16.20914 -43.52507,2.8777 -64.77301,20.91101 -94.8281,32.95262 z"
       id="path3060-0-2"
       inkscape:connector-curvature="0"
       sodipodi:nodetypes="ccccccccccc" />
    <rect
       style="opacity:0.87000001999999999;fill:#ffffff;fill-opacity:1;stroke:none"
       id="rect3873"
       width="60"
       height="40"
       x="154.28572"
       y="189.50504" />
    <path
       style="fill:#ffef95;stroke:none;stroke-width:1px;stroke-linecap:butt;stroke-linejoin:miter;stroke-opacity:1;fill-opacity:1"
       d="m 289.91378,160.39748 87.3782,28.28427 0,33.33504 -86.87312,-26.76905 z"
       id="path3889"
       inkscape:connector-curvature="0" />
    <path
       style="fill:#ffe5ba;stroke:none;stroke-width:1px;stroke-linecap:butt;stroke-linejoin:miter;stroke-opacity:1;fill-opacity:1"
       d="m 178.797,180.60053 -24.24366,10.6066 1.01015,34.85027 28.28427,-14.64721 -1.51522,-31.81981 z"
       id="path3891"
       inkscape:connector-curvature="0" />
    <path
       style="fill:none;stroke:#acacac;stroke-width:1px;stroke-linecap:butt;stroke-linejoin:miter;stroke-opacity:1"
       d="m 292.94424,227.57263 73.74114,19.19289"
       id="path3893"
       inkscape:connector-curvature="0" />
    <path
       style="fill:none;stroke:#000000;stroke-width:1px;stroke-linecap:butt;stroke-linejoin:miter;stroke-opacity:1"
       d="M 366.68538,240.19953 307.98063,224.46964"
       id="path3895"
       inkscape:connector-curvature="0" />
    <path
       style="fill:none;stroke:#acacac;stroke-width:1px;stroke-linecap:butt;stroke-linejoin:miter;stroke-opacity:1"
       d="m 296.47977,236.15892 67.81846,18.17191"
       id="path3897"
       inkscape:connector-curvature="0" />
    <path
       style="fill:none;stroke:#acacac;stroke-width:1px;stroke-linecap:butt;stroke-linejoin:miter;stroke-opacity:1"
       d="M 362.13969,261.41274 299.00515,244.74522"
       id="path3899"
       inkscape:connector-curvature="0" />
    <path
       style="fill:none;stroke:#acacac;stroke-width:1px;stroke-linecap:butt;stroke-linejoin:miter;stroke-opacity:1"
       d="m 299.00515,256.86705 59.3947,15.91476"
       id="path3901"
       inkscape:connector-curvature="0" />
    <path
       style="fill:none;stroke:#acacac;stroke-width:1px;stroke-linecap:butt;stroke-linejoin:miter;stroke-opacity:1"
       d="M 357.08893,276.56503 300.55552,261.41694"
       id="path3903"
       inkscape:connector-curvature="0" />
    <path
       style="fill:none;stroke:#acacac;stroke-width:1px;stroke-linecap:butt;stroke-linejoin:miter;stroke-opacity:1"
       d="m 300.01531,268.98888 62.00344,16.61377"
       id="path3905"
       inkscape:connector-curvature="0" />
    <path
       style="fill:#fff4b7;stroke:none;stroke-width:1px;stroke-linecap:butt;stroke-linejoin:miter;stroke-opacity:1;fill-opacity:1"
       d="m 153.03811,246.76552 0,55.05332 62.62946,-23.23351 0,-47.98225 -40.91118,15.65737 0,-12.12183 -21.55995,5.77697 z"
       id="path3907"
       inkscape:connector-curvature="0" />
    <path
       style="fill:#aac2ff;stroke:none;stroke-width:1px;stroke-linecap:butt;stroke-linejoin:miter;stroke-opacity:1;fill-opacity:1"
       d="m 192.93914,174.53962 27.81237,-7.45231 0,52.4041 -22.28086,5.97014 -4.02248,1.07782 z"
       id="path3911"
       inkscape:connector-curvature="0" />
  </g>
</svg>
